<svg viewBox="0 0 512 512" xmlns="http://www.w3.org/2000/svg">
  
  <circle cx="256" cy="256" r="210" fill="none" stroke="#C6A045" stroke-width="28"/>
  <rect x="150" y="150" width="36" height="212" rx="10" fill="#C6A045"/>
  <rect x="326" y="150" width="36" height="212" rx="10" fill="#C6A045"/>
  <path d="M 176 250 L 366 210 L 366 246 L 176 286 Z" fill="#C6A045"/>
  <circle cx="360" cy="162" r="10" fill="#C6A045"/>
  <path d="M 330 145 C 352 145 366 156 366 172 C 366 188 355 197 328 212
           C 300 228 291 240 291 256 L 368 256 L 368 276 L 268 276
           C 268 246 279 229 311 210 C 333 196 342 189 342 176
           C 342 163 334 157 320 157 C 306 157 294 162 284 171 L 276 158
           C 291 148 309 145 330 145 Z" fill="#C6A045"/>
</svg>